<?xml version="1.0" encoding="UTF-8"?>
<!DOCTYPE svg PUBLIC "-//W3C//DTD SVG 1.1//EN" "http://www.w3.org/Graphics/SVG/1.1/DTD/svg11.dtd">
<svg version="1.1" xmlns="http://www.w3.org/2000/svg" xmlns:xlink="http://www.w3.org/1999/xlink" x="0" y="0" width="220" height="205" viewBox="0, 0, 220, 205">
  <g id="Layer_2" display="none">
    <path d="M14.833,14 L203.833,14 C208.804,14 212.833,18.029 212.833,23 L212.833,166 C212.833,170.971 208.804,175 203.833,175 L14.833,175 C9.863,175 5.833,170.971 5.833,166 L5.833,23 C5.833,18.029 9.863,14 14.833,14 z" fill-opacity="0" stroke="#BF3333" stroke-width="9"/>
    <path d="M109.833,164.333 C106.888,164.333 104.5,161.946 104.5,159 C104.5,156.054 106.888,153.667 109.833,153.667 C112.779,153.667 115.167,156.054 115.167,159 C115.167,161.946 112.779,164.333 109.833,164.333 z" fill="#BF3333"/>
    <path d="M111.833,27.667 L199.5,27.667 L199.5,145 L111.833,145 L111.833,27.667 z" fill="#BF3333"/>
    <g>
      <path d="M18.833,5.667 C63.5,28.667 106.5,28 106.5,28 L106.5,145.333 C106.5,145.333 70.167,147.667 18.833,122.667 C18.833,122.333 18.833,5.667 18.833,5.667 z" fill="#BF3333"/>
      <path d="M14.833,-0.892 L20.664,2.11 C39.356,11.735 59.111,17.903 78.741,21.287 C85.737,22.493 92.258,23.26 98.156,23.674 C100.285,23.824 102.202,23.917 103.888,23.965 C104.99,23.997 105.824,24.005 106.372,24.001 C106.437,24.001 106.437,24.001 106.438,24 L110.5,23.938 L110.5,149.085 L106.756,149.325 C106.603,149.335 106.339,149.348 105.967,149.36 C99.35,149.578 89.657,148.917 77.413,146.648 C58.625,143.167 38.338,136.615 17.082,126.263 L14.833,125.168 L14.833,122.667 L14.833,-0.892 z M18.833,5.667 L18.833,122.667 C70.167,147.667 106.5,145.333 106.5,145.333 L106.5,28 C106.5,28 63.5,28.667 18.833,5.667 z" fill="#FFFFFF"/>
    </g>
    <path d="M81,178.8 C100,178.8 119,178.8 138,178.8 C138.5,184 138.9,192.4 139.5,194.6 C142.7,200.2 148.1,200.4 152.3,200.6 C152.3,201.3 152.3,202.1 152.3,202.8 C123.8,202.8 95.3,202.8 66.8,202.8 C66.8,202.1 66.116,200.751 66.8,200.6 C77.7,198.2 78.679,196.659 79.6,194.6 C81.3,190.8 80.5,184 81,178.8 z" fill="#BF3333"/>
  </g>
  <g id="Layer_2">
    <path d="M14.833,14 L203.833,14 C208.804,14 212.833,18.029 212.833,23 L212.833,166 C212.833,170.971 208.804,175 203.833,175 L14.833,175 C9.863,175 5.833,170.971 5.833,166 L5.833,23 C5.833,18.029 9.863,14 14.833,14 z" fill-opacity="0" stroke="#BF3233" stroke-width="9"/>
    <path d="M109.833,164.333 C106.888,164.333 104.5,161.946 104.5,159 C104.5,156.054 106.888,153.667 109.833,153.667 C112.779,153.667 115.167,156.054 115.167,159 C115.167,161.946 112.779,164.333 109.833,164.333 z" fill="#E1AE94"/>
    <path d="M111.833,27.667 L199.5,27.667 L199.5,145 L111.833,145 L111.833,27.667 z" fill="#6D8F8A"/>
    <g>
      <path d="M18.833,5.667 C63.5,28.667 106.5,28 106.5,28 L106.5,145.333 C106.5,145.333 70.167,147.667 18.833,122.667 C18.833,122.333 18.833,5.667 18.833,5.667 z" fill="#6D8F8A"/>
      <path d="M14.833,-0.892 L20.664,2.11 C39.356,11.735 59.111,17.903 78.741,21.287 C85.737,22.493 92.258,23.26 98.156,23.674 C100.285,23.824 102.202,23.917 103.888,23.965 C104.99,23.997 105.824,24.005 106.372,24.001 C106.437,24.001 106.437,24.001 106.438,24 L110.5,23.938 L110.5,149.085 L106.756,149.325 C106.603,149.335 106.339,149.348 105.967,149.36 C99.35,149.578 89.657,148.917 77.413,146.648 C58.625,143.167 38.338,136.615 17.082,126.263 L14.833,125.168 L14.833,122.667 L14.833,-0.892 z M18.833,5.667 L18.833,122.667 C70.167,147.667 106.5,145.333 106.5,145.333 L106.5,28 C106.5,28 63.5,28.667 18.833,5.667 z" fill="#FFFFFF"/>
    </g>
    <path d="M81,178.8 C100,178.8 119,178.8 138,178.8 C138.5,184 138.9,192.4 139.5,194.6 C142.7,200.2 148.1,200.4 152.3,200.6 C152.3,201.3 152.3,202.1 152.3,202.8 C123.8,202.8 95.3,202.8 66.8,202.8 C66.8,202.1 66.116,200.751 66.8,200.6 C77.7,198.2 78.679,196.659 79.6,194.6 C81.3,190.8 80.5,184 81,178.8 z" fill="#BF3233"/>
  </g>
</svg>
